<svg xmlns="http://www.w3.org/2000/svg" fill="#8090A6" width="24px" height="24px" viewBox="0 0 64 64" version="1.1" >
    <path d="M41.8,35.5 C38.6609375,35.5 37.1515625,37.25 32,37.25 C26.8484375,37.25 25.35,35.5 22.2,35.5 C14.084375,35.5 7.5,42.084375 7.5,50.2 L7.5,54.75 C7.5,57.6484375 9.8515625,60 12.75,60 L51.25,60 C54.1484375,60 56.5,57.6484375 56.5,54.75 L56.5,50.2 C56.5,42.084375 49.915625,35.5 41.8,35.5 Z M53,54.75 C53,55.7125 52.2125,56.5 51.25,56.5 L12.75,56.5 C11.7875,56.5 11,55.7125 11,54.75 L11,50.2 C11,44.0203125 16.0203125,39 22.2,39 C24.34375,39 26.4765625,40.75 32,40.75 C37.5125,40.75 39.65625,39 41.8,39 C47.9796875,39 53,44.0203125 53,50.2 L53,54.75 Z M32,32 C39.7328125,32 46,25.7328125 46,18 C46,10.2671875 39.7328125,4 32,4 C24.2671875,4 18,10.2671875 18,18 C18,25.7328125 24.2671875,32 32,32 Z M32,7.5 C37.7859375,7.5 42.5,12.2140625 42.5,18 C42.5,23.7859375 37.7859375,28.5 32,28.5 C26.2140625,28.5 21.5,23.7859375 21.5,18 C21.5,12.2140625 26.2140625,7.5 32,7.5 Z"></path>
</svg>
